<?xml version="1.0"?>
<svg width="24" height="24" xmlns="http://www.w3.org/2000/svg" xmlns:svg="http://www.w3.org/2000/svg" class="icon flat-color" data-name="Flat Color">
 <g class="layer">
  <title>Layer 1</title>
  <path d="m4,3l12,0a2,2 0 0 1 2,2l0,10a2,2 0 0 1 -2,2l-2,0l0,2a1,1 0 0 1 -0.51,0.87a1,1 0 0 1 -0.49,0.13a1,1 0 0 1 -0.51,-0.14l-4.77,-2.86l-3.72,0a2,2 0 0 1 -2,-2l0,-10a2,2 0 0 1 2,-2z" fill="#60c2aa" id="primary" transform="matrix(1 0 0 1 0 0)"/>
  <path d="m17,19l3,0l0,-11a1,1 0 0 1 2,0l0,11a2,2 0 0 1 -2,2l-3,0a1,1 0 0 1 0,-2zm-2,-11a1,1 0 0 0 -1,-1l-8,0a1,1 0 0 0 0,2l8,0a1,1 0 0 0 1,-1zm-10,4a1,1 0 0 0 1,1l8,0a1,1 0 0 0 0,-2l-8,0a1,1 0 0 0 -1,1z" fill="#fff" id="secondary" transform="matrix(1 0 0 1 0 0)"/>
  <ellipse cx="9.79" cy="10.02" fill="none" id="svg_2" rx="12.8" ry="0.3" stroke="#50a08c" transform="rotate(4.12567 9.93788 9.91213) matrix(0.70227 -0.693141 0.70227 0.693141 -3.97454 9.75394)"/>
 </g>

</svg>